<?xml version="1.0" encoding="UTF-8" ?>
<!DOCTYPE svg PUBLIC "-//W3C//DTD SVG 1.1//EN" "http://www.w3.org/Graphics/SVG/1.1/DTD/svg11.dtd">
<svg width="1920pt" height="1370pt" viewBox="0 0 1920 1370" version="1.1" xmlns="http://www.w3.org/2000/svg">
<g id="#e7e2ffff">
<path fill="#e7e2ff" opacity="1.00" d=" M 1784.07 50.53 C 1829.03 44.13 1874.76 41.99 1920.00 46.56 L 1920.00 1123.67 C 1906.09 1091.71 1886.76 1061.60 1860.64 1038.24 C 1835.96 1015.91 1805.06 1000.73 1772.44 994.28 C 1731.26 985.96 1688.57 990.12 1648.04 999.93 C 1589.33 1014.40 1534.01 1039.99 1481.36 1069.31 C 1464.91 1078.54 1448.84 1088.47 1431.93 1096.87 C 1394.13 1116.01 1353.63 1130.02 1311.86 1137.31 C 1266.76 1145.22 1220.49 1145.09 1175.15 1139.27 C 1128.05 1133.41 1081.94 1121.81 1035.93 1110.48 C 989.90 1099.26 943.49 1087.87 895.97 1085.74 C 856.78 1083.91 816.88 1089.77 780.90 1105.78 C 748.82 1119.82 720.22 1140.89 695.23 1165.25 C 682.98 1177.00 672.01 1189.99 659.90 1201.88 C 632.73 1228.93 602.62 1253.18 569.53 1272.61 C 533.12 1294.12 493.05 1309.59 451.42 1317.20 C 406.72 1325.50 360.53 1324.80 315.85 1316.66 C 272.36 1308.92 230.28 1294.43 190.27 1275.86 C 173.18 1268.05 156.81 1258.70 139.32 1251.75 C 95.23 1233.83 47.44 1226.26 0.00 1225.98 L 0.00 503.30 C 16.67 498.44 33.81 495.23 51.06 493.33 C 96.20 488.41 141.83 493.28 186.10 502.49 C 230.10 511.63 273.12 524.81 315.89 538.44 C 396.67 564.36 477.32 591.89 560.98 607.06 C 612.72 616.68 665.39 620.81 717.99 620.54 C 782.27 620.04 847.30 611.74 907.57 588.51 C 951.47 571.68 992.04 546.46 1026.83 514.86 C 1055.89 488.72 1081.16 458.68 1104.70 427.56 C 1127.77 397.19 1149.44 365.78 1172.68 335.54 C 1197.26 303.57 1223.97 272.90 1255.33 247.38 C 1282.83 224.67 1314.21 207.05 1346.93 193.06 C 1387.47 175.55 1430.10 162.91 1473.60 155.38 C 1476.78 154.75 1479.53 152.93 1482.42 151.53 C 1502.30 141.49 1522.42 131.91 1542.80 122.91 C 1619.83 89.08 1700.63 62.65 1784.07 50.53 Z" />
</g>
</svg>
