<?xml version="1.0" encoding="UTF-8" ?>
<!DOCTYPE svg PUBLIC "-//W3C//DTD SVG 1.1//EN" "http://www.w3.org/Graphics/SVG/1.1/DTD/svg11.dtd">
<svg width="1920pt" height="836pt" viewBox="0 0 1920 836" version="1.1" xmlns="http://www.w3.org/2000/svg">
<g id="#2a00c4ff">
<path fill="#2a00c4" opacity="1.00" d=" M 0.00 0.00 L 1920.00 0.00 L 1920.00 234.44 C 1907.18 223.95 1894.11 213.68 1879.96 205.03 C 1861.84 193.80 1841.98 184.97 1820.95 181.04 C 1798.92 176.60 1776.10 177.52 1754.03 181.22 C 1713.69 188.43 1675.69 204.57 1638.76 221.84 C 1597.42 241.22 1551.08 250.82 1505.46 246.39 C 1478.96 243.97 1452.99 237.76 1427.47 230.40 C 1387.68 218.56 1348.04 205.26 1306.77 199.54 C 1281.31 196.21 1255.44 195.89 1229.95 199.13 C 1187.09 204.70 1145.85 219.62 1107.75 239.73 C 1064.59 262.79 1028.40 297.20 998.97 335.99 C 947.86 403.12 914.81 481.39 871.16 553.17 C 853.81 581.67 834.52 609.23 811.20 633.21 C 793.12 651.91 772.41 668.19 749.39 680.38 C 714.05 699.13 673.82 707.56 633.98 707.71 C 590.30 708.33 547.01 700.19 504.99 688.86 C 468.11 678.75 432.13 665.64 396.77 651.10 C 377.79 642.83 357.61 637.04 336.94 635.19 C 313.59 632.65 289.88 635.80 267.49 642.62 C 234.15 653.12 203.93 671.45 175.63 691.64 C 143.56 714.36 113.39 739.67 81.01 761.97 C 55.96 779.10 29.30 794.62 0.00 803.19 L 0.00 0.00 Z" />
</g>
</svg>
