<?xml version="1.0" encoding="UTF-8" ?>
<!DOCTYPE svg PUBLIC "-//W3C//DTD SVG 1.1//EN" "http://www.w3.org/Graphics/SVG/1.1/DTD/svg11.dtd">
<svg width="1920pt" height="1201pt" viewBox="0 0 1920 1201" version="1.1" xmlns="http://www.w3.org/2000/svg">
<g id="#2a00c4ff">
<path fill="#2a00c4" opacity="1.00" d=" M 1630.39 54.23 C 1677.92 43.92 1726.35 37.54 1774.98 36.17 C 1823.48 34.76 1872.04 38.22 1920.00 45.42 L 1920.00 842.89 C 1882.96 826.65 1843.83 815.36 1804.10 807.96 C 1751.93 798.42 1698.55 796.15 1645.67 799.78 C 1603.15 802.75 1560.79 808.66 1519.28 818.39 C 1476.66 828.27 1434.99 842.25 1395.01 860.04 C 1359.79 875.62 1325.95 894.16 1292.97 914.00 C 1258.93 934.47 1225.66 956.19 1191.56 976.55 C 1154.87 998.39 1116.79 1018.29 1076.41 1032.43 C 1037.65 1046.20 996.99 1054.48 955.98 1057.50 C 901.27 1061.58 846.22 1056.87 792.27 1047.46 C 695.17 1029.18 595.62 1018.92 496.95 1029.02 C 441.38 1034.56 386.60 1047.28 334.00 1066.00 C 289.52 1081.53 246.71 1101.32 203.14 1119.13 C 164.30 1135.03 124.31 1148.85 82.76 1155.52 C 55.44 1160.06 27.65 1161.42 0.00 1160.32 L 0.00 246.58 C 32.15 263.27 67.44 273.52 103.26 278.43 C 149.27 284.74 196.14 282.35 241.84 274.71 C 308.83 263.37 373.52 241.05 435.44 213.44 C 473.46 196.44 510.51 177.32 546.71 156.73 C 563.15 147.33 580.12 138.83 597.65 131.64 C 637.88 115.00 681.45 105.97 725.07 107.21 C 770.11 108.24 814.16 119.75 856.44 134.62 C 921.49 157.51 984.45 187.34 1052.28 201.51 C 1084.70 208.33 1117.97 211.46 1151.09 209.76 C 1195.47 207.62 1239.17 196.86 1280.32 180.32 C 1295.86 174.14 1310.98 166.97 1326.32 160.31 C 1348.37 150.60 1370.52 141.14 1392.79 131.96 C 1469.95 100.36 1548.78 71.95 1630.39 54.23 Z" />
</g>
</svg>
